<?xml version="1.0" encoding="UTF-8"?> <svg xmlns="http://www.w3.org/2000/svg" width="140" height="12" viewBox="0 0 140 12" fill="none"><g clip-path="url(#clip0_5695_419)"><path d="M133.991 0.742188C136.104 0.742188 138.016 1.63673 139.05 2.77128L137.883 3.97128C136.982 3.13128 135.659 2.33491 133.88 2.33491C131.212 2.33491 129.711 4.20037 129.711 6.13128V6.33855C129.711 8.25855 131.223 10.0476 134.014 10.0476C135.681 10.0476 137.06 9.24037 137.927 8.41128L139.05 9.62219C137.669 10.9381 135.816 11.6671 133.891 11.6513C130.111 11.6513 127.821 9.1531 127.821 6.41492V6.07673C127.821 3.32764 130.323 0.742188 133.98 0.742188H133.991ZM17.657 1.1131V7.06946C17.657 8.93492 18.8688 10.0476 21.1813 10.0476C23.5493 10.0476 24.5165 8.93492 24.5165 7.06946V1.1131H26.3954V7.03673C26.3954 9.54582 24.8056 11.6513 21.0367 11.6513C17.4569 11.6513 15.7892 9.66582 15.7892 7.03673V1.09128H17.657V1.1131ZM50.4761 0.742188C54.0337 0.742188 56.3129 3.28401 56.3129 6.0331V6.36037C56.3129 9.06582 54.0226 11.6513 50.465 11.6513C46.9296 11.6513 44.6394 9.06582 44.6394 6.36037V6.0331C44.6394 3.2731 46.9296 0.742188 50.4761 0.742188ZM41.1929 1.1131V2.69491H36.8237V11.2586H34.956V2.69491H30.5867V1.1131H41.1929ZM63.5615 1.1131L67.4971 8.0731L67.9641 8.92401L68.431 8.0731L72.3222 1.09128H74.8903V11.2367H73.0226V3.24037L72.5223 4.1131L68.3421 11.2695H67.4304L63.2836 4.1131L62.7833 3.22946V11.2586H60.96V1.1131H63.5504H63.5615ZM102.996 1.1131V2.69491H98.6264V11.2586H96.7586V2.69491H92.3894V1.1131H102.996ZM116.737 1.1131V2.69491H112.379V11.2586H110.5V2.69491H106.142V1.1131H116.737ZM123.207 1.1131V11.2586H121.362V2.06219C122.107 2.06219 122.407 1.65855 122.407 1.10219H123.207V1.1131ZM7.02857 1.1131L12.5207 11.2586H10.5195L9.1965 8.74946H3.33753L2.05901 11.2586H0.0800781L5.48323 1.1131H7.03969H7.02857ZM85.5855 1.1131L91.0664 11.2586H89.0653L87.7423 8.74946H81.8833L80.6048 11.2586H78.6258L84.029 1.1131H85.5855ZM50.4761 2.34582C47.9191 2.34582 46.5294 4.09128 46.5294 6.05492V6.30582C46.5294 8.26946 47.9191 10.0476 50.4761 10.0476C53.022 10.0476 54.434 8.26946 54.434 6.30582V6.05492C54.434 4.09128 53.022 2.34582 50.4761 2.34582ZM51.6991 4.27673C51.8625 4.38752 51.9766 4.55545 52.0179 4.7461C52.0592 4.93676 52.0247 5.1357 51.9214 5.30219L50.2093 7.98582C50.1594 8.06598 50.0936 8.13544 50.0158 8.19005C49.938 8.24467 49.8497 8.28332 49.7563 8.30369C49.6629 8.32405 49.5662 8.32573 49.4721 8.3086C49.3781 8.29147 49.2885 8.2559 49.2087 8.20401C49.0482 8.09348 48.9361 7.92759 48.8949 7.73949C48.8537 7.55139 48.8864 7.35495 48.9864 7.18946L50.6985 4.49491C50.7483 4.41476 50.8141 4.3453 50.892 4.29069C50.9698 4.23607 51.0581 4.19742 51.1515 4.17705C51.2449 4.15669 51.3415 4.15501 51.4356 4.17214C51.5297 4.18927 51.6193 4.22484 51.6991 4.27673ZM6.22811 3.08764L4.02682 7.3531H8.45162L6.20587 3.09855L6.22811 3.08764ZM84.7739 3.08764L82.5948 7.3531H87.0196L84.7739 3.09855V3.08764Z" fill="#0075DF"></path></g><defs><clipPath id="clip0_5695_419"><rect width="140" height="12" fill="white"></rect></clipPath></defs></svg> 