<svg width="40" height="40" viewBox="0 0 40 40" fill="none" xmlns="http://www.w3.org/2000/svg">
<path d="M20 0C8.95429 0 0 8.95431 0 20.0001C0 31.0457 8.95429 40 20 40C31.0457 40 40 31.0457 40 20.0001C40 8.95431 31.0457 0 20 0ZM20 1.19994C22.5385 1.19994 25.0005 1.69696 27.3174 2.67695C28.4312 3.14801 29.5055 3.73104 30.5104 4.41002C31.5061 5.08273 32.4426 5.8554 33.2936 6.70641C34.1446 7.55743 34.9172 8.49388 35.5899 9.48956C36.2689 10.4946 36.852 11.5688 37.3231 12.6825C38.3031 14.9996 38.8 17.4615 38.8 20.0001C38.8 22.5385 38.3031 25.0004 37.3231 27.3175C36.852 28.4312 36.2689 29.5054 35.5899 30.5104C34.9172 31.5061 34.1446 32.4426 33.2936 33.2936C32.4426 34.1446 31.5061 34.9173 30.5104 35.59C29.5055 36.269 28.4312 36.852 27.3174 37.3231C25.0005 38.303 22.5385 38.8001 20 38.8001C17.4615 38.8001 14.9995 38.303 12.6826 37.3231C11.5689 36.852 10.4945 36.269 9.48965 35.59C8.49385 34.9173 7.55741 34.1446 6.70639 33.2936C5.85538 32.4426 5.08284 31.5061 4.41012 30.5104C3.73115 29.5054 3.148 28.4312 2.67694 27.3175C1.69695 25.0004 1.20006 22.5385 1.20006 20.0001C1.20006 17.4615 1.69695 14.9996 2.67694 12.6825C3.148 11.5688 3.73115 10.4946 4.41012 9.48956C5.08284 8.49388 5.85538 7.55743 6.70639 6.70641C7.55741 5.8554 8.49385 5.08273 9.48965 4.41002C10.4945 3.73104 11.5689 3.14801 12.6826 2.67695C14.9995 1.69696 17.4615 1.19994 20 1.19994Z" fill="white"/>
<path d="M34.6255 12.0039C34.697 12.5347 34.7376 13.1042 34.7376 13.7176C34.7376 15.4082 34.4208 17.3094 33.4698 19.687L28.3795 34.4048C33.3345 31.5161 36.6667 26.148 36.6667 19.9994C36.6667 17.1017 35.9261 14.3776 34.6255 12.0039ZM20.2928 21.4571L15.2915 35.9876C16.7852 36.427 18.3641 36.6666 20.0001 36.6666C21.9409 36.6666 23.8027 36.3316 25.535 35.7217C25.4904 35.6504 25.4493 35.5747 25.4153 35.4921L20.2928 21.4571ZM31.2513 19.1589C31.2513 17.0983 30.5112 15.6723 29.8775 14.5625C29.0325 13.189 28.2402 12.0269 28.2402 10.6535C28.2402 9.12166 29.4019 7.69563 31.039 7.69563C31.113 7.69563 31.183 7.70448 31.2549 7.70908C28.2897 4.99213 24.3389 3.33329 20.0001 3.33329C14.1771 3.33329 9.05477 6.32105 6.07457 10.8452C6.46597 10.8576 6.8346 10.8653 7.14718 10.8653C8.89016 10.8653 11.5893 10.6535 11.5893 10.6535C12.4873 10.6009 12.5935 11.9209 11.6958 12.0269C11.6958 12.0269 10.7927 12.1328 9.78849 12.1853L15.8574 30.2384L19.5053 19.2998L16.9088 12.1853C16.0108 12.1328 15.1608 12.0269 15.1608 12.0269C14.2623 11.974 14.3676 10.6009 15.2665 10.6535C15.2665 10.6535 18.0183 10.8653 19.6559 10.8653C21.3987 10.8653 24.0984 10.6535 24.0984 10.6535C24.9968 10.6009 25.1025 11.9209 24.2045 12.0269C24.2045 12.0269 23.3005 12.1328 22.2972 12.1853L28.3203 30.1009L30.0397 24.6528C30.8035 22.2718 31.2513 20.5849 31.2513 19.1589ZM3.33343 19.9994C3.33343 26.596 7.16677 32.2975 12.727 34.9987L4.77657 13.2166C3.85181 15.2893 3.33343 17.5831 3.33343 19.9994Z" fill="white"/>
</svg>
